solid OpenSCAD_Model
  facet normal 0.751735 0.0472955 0.657768
    outer loop
      vertex 29.7634 3.76 0
      vertex 12.5 0 20
      vertex 30 0 0
    endloop
  endfacet
  facet normal -0.0944034 0.747281 0.657768
    outer loop
      vertex -1.88371 29.9408 0
      vertex -2.34227 12.2786 20
      vertex -0.784881 12.4753 20
    endloop
  endfacet
  facet normal 0.580367 -0.480121 0.657768
    outer loop
      vertex 24.2705 -17.6336 0
      vertex 9.11211 -8.55684 20
      vertex 21.8691 -20.5364 0
    endloop
  endfacet
  facet normal 0.515615 0.549074 0.657768
    outer loop
      vertex 19.1227 23.1154 0
      vertex 7.9678 9.63142 20
      vertex 21.8691 20.5364 0
    endloop
  endfacet
  facet normal 0.635965 -0.403596 0.657768
    outer loop
      vertex 10.9538 -6.02192 20
      vertex 10.1127 -7.34731 20
      vertex 26.2892 -14.4526 0
    endloop
  endfacet
  facet normal -0.580367 0.480121 0.657768
    outer loop
      vertex -21.8691 20.5364 0
      vertex -24.2705 17.6336 0
      vertex -9.11211 8.55684 20
    endloop
  endfacet
  facet normal -0.187319 0.729557 0.657768
    outer loop
      vertex -2.34227 12.2786 20
      vertex -9.27051 28.5317 0
      vertex -3.86271 11.8882 20
    endloop
  endfacet
  facet normal -0.580367 0.480121 0.657768
    outer loop
      vertex -9.11211 8.55684 20
      vertex -24.2705 17.6336 0
      vertex -10.1127 7.34731 20
    endloop
  endfacet
  facet normal -0.751735 0.0472955 0.657768
    outer loop
      vertex -29.7634 3.76 0
      vertex -30 0 0
      vertex -12.5 0 20
    endloop
  endfacet
  facet normal -0.635965 -0.403596 0.657768
    outer loop
      vertex -10.9538 -6.02192 20
      vertex -26.2892 -14.4526 0
      vertex -10.1127 -7.34731 20
    endloop
  endfacet
  facet normal 0.362867 0.660052 0.657768
    outer loop
      vertex 16.0748 25.3298 0
      vertex 5.32224 11.3103 20
      vertex 6.69783 10.5541 20
    endloop
  endfacet
  facet normal 0.681534 0.320706 0.657768
    outer loop
      vertex 26.2892 14.4526 0
      vertex 11.6222 4.60156 20
      vertex 27.8933 11.0437 0
    endloop
  endfacet
  facet normal 0.580367 0.480121 0.657768
    outer loop
      vertex 24.2705 17.6336 0
      vertex 9.11211 8.55684 20
      vertex 10.1127 7.34731 20
    endloop
  endfacet
  facet normal 0.716356 -0.232758 0.657768
    outer loop
      vertex 29.0575 -7.4607 0
      vertex 12.1073 -3.10862 20
      vertex 27.8933 -11.0437 0
    endloop
  endfacet
  facet normal -0.681534 0.320706 0.657768
    outer loop
      vertex -26.2892 14.4526 0
      vertex -27.8933 11.0437 0
      vertex -11.6222 4.60156 20
    endloop
  endfacet
  facet normal -0.739879 0.141139 0.657768
    outer loop
      vertex -29.0575 7.4607 0
      vertex -29.7634 3.76 0
      vertex -12.1073 3.10862 20
    endloop
  endfacet
  facet normal 0 0 1
    outer loop
      vertex 4 0 20
      vertex 12.5 0 20
      vertex 12.4014 1.56666 20
    endloop
  endfacet
  facet normal 0 0 1
    outer loop
      vertex 3.96846 0.501332 20
      vertex 12.4014 1.56666 20
      vertex 12.1073 3.10862 20
    endloop
  endfacet
  facet normal 0 0 1
    outer loop
      vertex 12.5 0 20
      vertex 4 0 20
      vertex 12.4014 -1.56666 20
    endloop
  endfacet
  facet normal 0 0 1
    outer loop
      vertex 3.87433 0.994759 20
      vertex 12.1073 3.10862 20
      vertex 11.6222 4.60156 20
    endloop
  endfacet
  facet normal -0 0 1
    outer loop
      vertex 3.96846 -0.501332 20
      vertex 12.4014 -1.56666 20
      vertex 4 0 20
    endloop
  endfacet
  facet normal 0 0 1
    outer loop
      vertex 3.71911 1.4725 20
      vertex 11.6222 4.60156 20
      vertex 10.9538 6.02192 20
    endloop
  endfacet
  facet normal 0 0 1
    outer loop
      vertex 12.4014 -1.56666 20
      vertex 3.96846 -0.501332 20
      vertex 12.1073 -3.10862 20
    endloop
  endfacet
  facet normal 0 0 1
    outer loop
      vertex 3.50523 1.92701 20
      vertex 10.9538 6.02192 20
      vertex 10.1127 7.34731 20
    endloop
  endfacet
  facet normal -0 0 1
    outer loop
      vertex 3.87433 -0.994759 20
      vertex 12.1073 -3.10862 20
      vertex 3.96846 -0.501332 20
    endloop
  endfacet
  facet normal 0 0 1
    outer loop
      vertex 3.23607 2.35114 20
      vertex 10.1127 7.34731 20
      vertex 9.11211 8.55684 20
    endloop
  endfacet
  facet normal 0 0 1
    outer loop
      vertex 12.1073 -3.10862 20
      vertex 3.87433 -0.994759 20
      vertex 11.6222 -4.60156 20
    endloop
  endfacet
  facet normal 0 0 1
    outer loop
      vertex 2.91587 2.73819 20
      vertex 9.11211 8.55684 20
      vertex 7.9678 9.63142 20
    endloop
  endfacet
  facet normal -0 0 1
    outer loop
      vertex 3.71911 -1.4725 20
      vertex 11.6222 -4.60156 20
      vertex 3.87433 -0.994759 20
    endloop
  endfacet
  facet normal 0 0 1
    outer loop
      vertex 2.5497 3.08205 20
      vertex 7.9678 9.63142 20
      vertex 6.69783 10.5541 20
    endloop
  endfacet
  facet normal 0 0 1
    outer loop
      vertex 11.6222 -4.60156 20
      vertex 3.71911 -1.4725 20
      vertex 10.9538 -6.02192 20
    endloop
  endfacet
  facet normal 0 0 1
    outer loop
      vertex 2.14331 3.37731 20
      vertex 6.69783 10.5541 20
      vertex 5.32224 11.3103 20
    endloop
  endfacet
  facet normal -0 0 1
    outer loop
      vertex 3.50523 -1.92701 20
      vertex 10.9538 -6.02192 20
      vertex 3.71911 -1.4725 20
    endloop
  endfacet
  facet normal 0 0 1
    outer loop
      vertex 10.9538 -6.02192 20
      vertex 3.50523 -1.92701 20
      vertex 10.1127 -7.34731 20
    endloop
  endfacet
  facet normal 0 0 1
    outer loop
      vertex 12.4014 1.56666 20
      vertex 3.96846 0.501332 20
      vertex 4 0 20
    endloop
  endfacet
  facet normal 0 0 1
    outer loop
      vertex 12.1073 3.10862 20
      vertex 3.87433 0.994759 20
      vertex 3.96846 0.501332 20
    endloop
  endfacet
  facet normal 0 0 1
    outer loop
      vertex 1.70312 3.61931 20
      vertex 5.32224 11.3103 20
      vertex 3.86271 11.8882 20
    endloop
  endfacet
  facet normal 0 0 1
    outer loop
      vertex 11.6222 4.60156 20
      vertex 3.71911 1.4725 20
      vertex 3.87433 0.994759 20
    endloop
  endfacet
  facet normal 0 0 1
    outer loop
      vertex 10.9538 6.02192 20
      vertex 3.50523 1.92701 20
      vertex 3.71911 1.4725 20
    endloop
  endfacet
  facet normal 0 0 1
    outer loop
      vertex 10.1127 7.34731 20
      vertex 3.23607 2.35114 20
      vertex 3.50523 1.92701 20
    endloop
  endfacet
  facet normal 0 0 1
    outer loop
      vertex 9.11211 8.55684 20
      vertex 2.91587 2.73819 20
      vertex 3.23607 2.35114 20
    endloop
  endfacet
  facet normal 0 0 1
    outer loop
      vertex 7.9678 9.63142 20
      vertex 2.5497 3.08205 20
      vertex 2.91587 2.73819 20
    endloop
  endfacet
  facet normal 0 0 1
    outer loop
      vertex 1.23607 3.80423 20
      vertex 3.86271 11.8882 20
      vertex 2.34227 12.2786 20
    endloop
  endfacet
  facet normal 0 0 1
    outer loop
      vertex 6.69783 10.5541 20
      vertex 2.14331 3.37731 20
      vertex 2.5497 3.08205 20
    endloop
  endfacet
  facet normal 0 0 1
    outer loop
      vertex 5.32224 11.3103 20
      vertex 1.70312 3.61931 20
      vertex 2.14331 3.37731 20
    endloop
  endfacet
  facet normal 0 0 1
    outer loop
      vertex 3.86271 11.8882 20
      vertex 1.23607 3.80423 20
      vertex 1.70312 3.61931 20
    endloop
  endfacet
  facet normal 0 0 1
    outer loop
      vertex 0.749525 3.92915 20
      vertex 2.34227 12.2786 20
      vertex 0.784881 12.4753 20
    endloop
  endfacet
  facet normal 0 0 1
    outer loop
      vertex 2.34227 12.2786 20
      vertex 0.749525 3.92915 20
      vertex 1.23607 3.80423 20
    endloop
  endfacet
  facet normal 0 0 1
    outer loop
      vertex 0.784881 12.4753 20
      vertex 0.251162 3.99211 20
      vertex 0.749525 3.92915 20
    endloop
  endfacet
  facet normal 0 0 1
    outer loop
      vertex 0.784881 12.4753 20
      vertex -0.251162 3.99211 20
      vertex 0.251162 3.99211 20
    endloop
  endfacet
  facet normal -0 0 1
    outer loop
      vertex -0.784881 12.4753 20
      vertex -0.251162 3.99211 20
      vertex 0.784881 12.4753 20
    endloop
  endfacet
  facet normal 0 0 1
    outer loop
      vertex -0.251162 3.99211 20
      vertex -0.784881 12.4753 20
      vertex -0.749525 3.92915 20
    endloop
  endfacet
  facet normal -0 0 1
    outer loop
      vertex -2.34227 12.2786 20
      vertex -0.749525 3.92915 20
      vertex -0.784881 12.4753 20
    endloop
  endfacet
  facet normal 0 0 1
    outer loop
      vertex -0.749525 3.92915 20
      vertex -2.34227 12.2786 20
      vertex -1.23607 3.80423 20
    endloop
  endfacet
  facet normal -0 0 1
    outer loop
      vertex -3.86271 11.8882 20
      vertex -1.23607 3.80423 20
      vertex -2.34227 12.2786 20
    endloop
  endfacet
  facet normal 0 0 1
    outer loop
      vertex -1.23607 3.80423 20
      vertex -3.86271 11.8882 20
      vertex -1.70312 3.61931 20
    endloop
  endfacet
  facet normal -0 0 1
    outer loop
      vertex -5.32224 11.3103 20
      vertex -1.70312 3.61931 20
      vertex -3.86271 11.8882 20
    endloop
  endfacet
  facet normal 0 0 1
    outer loop
      vertex -1.70312 3.61931 20
      vertex -5.32224 11.3103 20
      vertex -2.14331 3.37731 20
    endloop
  endfacet
  facet normal -0 0 1
    outer loop
      vertex -6.69783 10.5541 20
      vertex -2.14331 3.37731 20
      vertex -5.32224 11.3103 20
    endloop
  endfacet
  facet normal 0 0 1
    outer loop
      vertex -2.14331 3.37731 20
      vertex -6.69783 10.5541 20
      vertex -2.5497 3.08205 20
    endloop
  endfacet
  facet normal -0 0 1
    outer loop
      vertex -7.9678 9.63142 20
      vertex -2.5497 3.08205 20
      vertex -6.69783 10.5541 20
    endloop
  endfacet
  facet normal 0 0 1
    outer loop
      vertex -2.5497 3.08205 20
      vertex -7.9678 9.63142 20
      vertex -2.91587 2.73819 20
    endloop
  endfacet
  facet normal -0 0 1
    outer loop
      vertex -9.11211 8.55684 20
      vertex -2.91587 2.73819 20
      vertex -7.9678 9.63142 20
    endloop
  endfacet
  facet normal 0 0 1
    outer loop
      vertex -2.91587 2.73819 20
      vertex -9.11211 8.55684 20
      vertex -3.23607 2.35114 20
    endloop
  endfacet
  facet normal -0 0 1
    outer loop
      vertex -10.1127 7.34731 20
      vertex -3.23607 2.35114 20
      vertex -9.11211 8.55684 20
    endloop
  endfacet
  facet normal 0 0 1
    outer loop
      vertex -3.23607 2.35114 20
      vertex -10.1127 7.34731 20
      vertex -3.50523 1.92701 20
    endloop
  endfacet
  facet normal -0 0 1
    outer loop
      vertex 3.23607 -2.35114 20
      vertex 10.1127 -7.34731 20
      vertex 3.50523 -1.92701 20
    endloop
  endfacet
  facet normal 0 0 1
    outer loop
      vertex 10.1127 -7.34731 20
      vertex 3.23607 -2.35114 20
      vertex 9.11211 -8.55684 20
    endloop
  endfacet
  facet normal -0 0 1
    outer loop
      vertex 2.91587 -2.73819 20
      vertex 9.11211 -8.55684 20
      vertex 3.23607 -2.35114 20
    endloop
  endfacet
  facet normal 0 0 1
    outer loop
      vertex 9.11211 -8.55684 20
      vertex 2.91587 -2.73819 20
      vertex 7.9678 -9.63142 20
    endloop
  endfacet
  facet normal -0 0 1
    outer loop
      vertex 2.5497 -3.08205 20
      vertex 7.9678 -9.63142 20
      vertex 2.91587 -2.73819 20
    endloop
  endfacet
  facet normal 0 0 1
    outer loop
      vertex 7.9678 -9.63142 20
      vertex 2.5497 -3.08205 20
      vertex 6.69783 -10.5541 20
    endloop
  endfacet
  facet normal -0 0 1
    outer loop
      vertex 2.14331 -3.37731 20
      vertex 6.69783 -10.5541 20
      vertex 2.5497 -3.08205 20
    endloop
  endfacet
  facet normal 0 0 1
    outer loop
      vertex 6.69783 -10.5541 20
      vertex 2.14331 -3.37731 20
      vertex 5.32224 -11.3103 20
    endloop
  endfacet
  facet normal -0 0 1
    outer loop
      vertex 1.70312 -3.61931 20
      vertex 5.32224 -11.3103 20
      vertex 2.14331 -3.37731 20
    endloop
  endfacet
  facet normal 0 0 1
    outer loop
      vertex 5.32224 -11.3103 20
      vertex 1.70312 -3.61931 20
      vertex 3.86271 -11.8882 20
    endloop
  endfacet
  facet normal -0 0 1
    outer loop
      vertex 1.23607 -3.80423 20
      vertex 3.86271 -11.8882 20
      vertex 1.70312 -3.61931 20
    endloop
  endfacet
  facet normal 0 0 1
    outer loop
      vertex 3.86271 -11.8882 20
      vertex 1.23607 -3.80423 20
      vertex 2.34227 -12.2786 20
    endloop
  endfacet
  facet normal -0 0 1
    outer loop
      vertex 0.749525 -3.92915 20
      vertex 2.34227 -12.2786 20
      vertex 1.23607 -3.80423 20
    endloop
  endfacet
  facet normal 0 0 1
    outer loop
      vertex 2.34227 -12.2786 20
      vertex 0.749525 -3.92915 20
      vertex 0.784881 -12.4753 20
    endloop
  endfacet
  facet normal -0 0 1
    outer loop
      vertex 0.251162 -3.99211 20
      vertex 0.784881 -12.4753 20
      vertex 0.749525 -3.92915 20
    endloop
  endfacet
  facet normal -0 0 1
    outer loop
      vertex -0.251162 -3.99211 20
      vertex 0.784881 -12.4753 20
      vertex 0.251162 -3.99211 20
    endloop
  endfacet
  facet normal 0 0 1
    outer loop
      vertex -0.784881 -12.4753 20
      vertex -0.251162 -3.99211 20
      vertex -0.749525 -3.92915 20
    endloop
  endfacet
  facet normal 0 0 1
    outer loop
      vertex -0.251162 -3.99211 20
      vertex -0.784881 -12.4753 20
      vertex 0.784881 -12.4753 20
    endloop
  endfacet
  facet normal 0 0 1
    outer loop
      vertex -2.34227 -12.2786 20
      vertex -0.749525 -3.92915 20
      vertex -1.23607 -3.80423 20
    endloop
  endfacet
  facet normal 0 0 1
    outer loop
      vertex -3.86271 -11.8882 20
      vertex -1.23607 -3.80423 20
      vertex -1.70312 -3.61931 20
    endloop
  endfacet
  facet normal 0 0 1
    outer loop
      vertex -5.32224 -11.3103 20
      vertex -1.70312 -3.61931 20
      vertex -2.14331 -3.37731 20
    endloop
  endfacet
  facet normal 0 0 1
    outer loop
      vertex -0.749525 -3.92915 20
      vertex -2.34227 -12.2786 20
      vertex -0.784881 -12.4753 20
    endloop
  endfacet
  facet normal 0 0 1
    outer loop
      vertex -6.69783 -10.5541 20
      vertex -2.14331 -3.37731 20
      vertex -2.5497 -3.08205 20
    endloop
  endfacet
  facet normal 0 0 1
    outer loop
      vertex -7.9678 -9.63142 20
      vertex -2.5497 -3.08205 20
      vertex -2.91587 -2.73819 20
    endloop
  endfacet
  facet normal 0 0 1
    outer loop
      vertex -9.11211 -8.55684 20
      vertex -2.91587 -2.73819 20
      vertex -3.23607 -2.35114 20
    endloop
  endfacet
  facet normal 0 0 1
    outer loop
      vertex -10.1127 -7.34731 20
      vertex -3.23607 -2.35114 20
      vertex -3.50523 -1.92701 20
    endloop
  endfacet
  facet normal 0 0 1
    outer loop
      vertex -10.9538 -6.02192 20
      vertex -3.50523 -1.92701 20
      vertex -3.71911 -1.4725 20
    endloop
  endfacet
  facet normal 0 0 1
    outer loop
      vertex -1.23607 -3.80423 20
      vertex -3.86271 -11.8882 20
      vertex -2.34227 -12.2786 20
    endloop
  endfacet
  facet normal 0 0 1
    outer loop
      vertex -11.6222 -4.60156 20
      vertex -3.71911 -1.4725 20
      vertex -3.87433 -0.994759 20
    endloop
  endfacet
  facet normal 0 0 1
    outer loop
      vertex -12.1073 -3.10862 20
      vertex -3.87433 -0.994759 20
      vertex -3.96846 -0.501332 20
    endloop
  endfacet
  facet normal 0 0 1
    outer loop
      vertex -12.4014 -1.56666 20
      vertex -3.96846 -0.501332 20
      vertex -4 0 20
    endloop
  endfacet
  facet normal -0 0 1
    outer loop
      vertex -10.9538 6.02192 20
      vertex -3.50523 1.92701 20
      vertex -10.1127 7.34731 20
    endloop
  endfacet
  facet normal 0 0 1
    outer loop
      vertex -1.70312 -3.61931 20
      vertex -5.32224 -11.3103 20
      vertex -3.86271 -11.8882 20
    endloop
  endfacet
  facet normal 0 0 1
    outer loop
      vertex -3.50523 1.92701 20
      vertex -10.9538 6.02192 20
      vertex -3.71911 1.4725 20
    endloop
  endfacet
  facet normal 0 0 1
    outer loop
      vertex -2.14331 -3.37731 20
      vertex -6.69783 -10.5541 20
      vertex -5.32224 -11.3103 20
    endloop
  endfacet
  facet normal -0 0 1
    outer loop
      vertex -11.6222 4.60156 20
      vertex -3.71911 1.4725 20
      vertex -10.9538 6.02192 20
    endloop
  endfacet
  facet normal 0 0 1
    outer loop
      vertex -2.5497 -3.08205 20
      vertex -7.9678 -9.63142 20
      vertex -6.69783 -10.5541 20
    endloop
  endfacet
  facet normal 0 0 1
    outer loop
      vertex -3.71911 1.4725 20
      vertex -11.6222 4.60156 20
      vertex -3.87433 0.994759 20
    endloop
  endfacet
  facet normal 0 0 1
    outer loop
      vertex -2.91587 -2.73819 20
      vertex -9.11211 -8.55684 20
      vertex -7.9678 -9.63142 20
    endloop
  endfacet
  facet normal -0 0 1
    outer loop
      vertex -12.1073 3.10862 20
      vertex -3.87433 0.994759 20
      vertex -11.6222 4.60156 20
    endloop
  endfacet
  facet normal 0 0 1
    outer loop
      vertex -3.23607 -2.35114 20
      vertex -10.1127 -7.34731 20
      vertex -9.11211 -8.55684 20
    endloop
  endfacet
  facet normal 0 0 1
    outer loop
      vertex -3.87433 0.994759 20
      vertex -12.1073 3.10862 20
      vertex -3.96846 0.501332 20
    endloop
  endfacet
  facet normal 0 0 1
    outer loop
      vertex -3.50523 -1.92701 20
      vertex -10.9538 -6.02192 20
      vertex -10.1127 -7.34731 20
    endloop
  endfacet
  facet normal -0 0 1
    outer loop
      vertex -12.4014 1.56666 20
      vertex -3.96846 0.501332 20
      vertex -12.1073 3.10862 20
    endloop
  endfacet
  facet normal 0 0 1
    outer loop
      vertex -3.71911 -1.4725 20
      vertex -11.6222 -4.60156 20
      vertex -10.9538 -6.02192 20
    endloop
  endfacet
  facet normal 0 0 1
    outer loop
      vertex -3.96846 0.501332 20
      vertex -12.4014 1.56666 20
      vertex -4 0 20
    endloop
  endfacet
  facet normal 0 0 1
    outer loop
      vertex -3.87433 -0.994759 20
      vertex -12.1073 -3.10862 20
      vertex -11.6222 -4.60156 20
    endloop
  endfacet
  facet normal 0 0 1
    outer loop
      vertex -12.5 0 20
      vertex -4 0 20
      vertex -12.4014 1.56666 20
    endloop
  endfacet
  facet normal 0 0 1
    outer loop
      vertex -3.96846 -0.501332 20
      vertex -12.4014 -1.56666 20
      vertex -12.1073 -3.10862 20
    endloop
  endfacet
  facet normal 0 0 1
    outer loop
      vertex -4 0 20
      vertex -12.5 0 20
      vertex -12.4014 -1.56666 20
    endloop
  endfacet
  facet normal -0.515615 -0.549074 0.657768
    outer loop
      vertex -9.11211 -8.55684 20
      vertex -21.8691 -20.5364 0
      vertex -7.9678 -9.63142 20
    endloop
  endfacet
  facet normal 0.187318 0.729557 0.657768
    outer loop
      vertex 5.62144 29.4686 0
      vertex 2.34227 12.2786 20
      vertex 9.27051 28.5317 0
    endloop
  endfacet
  facet normal 0.442732 0.609368 0.657768
    outer loop
      vertex 16.0748 25.3298 0
      vertex 7.9678 9.63142 20
      vertex 19.1227 23.1154 0
    endloop
  endfacet
  facet normal -0.27728 0.700327 0.657768
    outer loop
      vertex -9.27051 28.5317 0
      vertex -12.7734 27.1448 0
      vertex -5.32224 11.3103 20
    endloop
  endfacet
  facet normal 0.635965 0.403596 0.657768
    outer loop
      vertex 24.2705 17.6336 0
      vertex 10.1127 7.34731 20
      vertex 26.2892 14.4526 0
    endloop
  endfacet
  facet normal 0.739879 0.141139 0.657768
    outer loop
      vertex 29.0575 7.4607 0
      vertex 12.1073 3.10862 20
      vertex 29.7634 3.76 0
    endloop
  endfacet
  facet normal -0.0944038 -0.747281 0.657768
    outer loop
      vertex -2.34227 -12.2786 20
      vertex -5.62144 -29.4686 0
      vertex -1.88371 -29.9408 0
    endloop
  endfacet
  facet normal 0.187318 -0.729557 0.657768
    outer loop
      vertex 9.27051 -28.5317 0
      vertex 2.34227 -12.2786 20
      vertex 5.62144 -29.4686 0
    endloop
  endfacet
  facet normal 0.277279 -0.700327 0.657768
    outer loop
      vertex 5.32224 -11.3103 20
      vertex 3.86271 -11.8882 20
      vertex 9.27051 -28.5317 0
    endloop
  endfacet
  facet normal 0.751735 -0.0472955 0.657768
    outer loop
      vertex 30 0 0
      vertex 12.5 0 20
      vertex 29.7634 -3.76 0
    endloop
  endfacet
  facet normal -0.362867 0.660053 0.657768
    outer loop
      vertex -12.7734 27.1448 0
      vertex -16.0748 25.3298 0
      vertex -5.32224 11.3103 20
    endloop
  endfacet
  facet normal -0.442732 0.609369 0.657768
    outer loop
      vertex -6.69783 10.5541 20
      vertex -16.0748 25.3298 0
      vertex -7.9678 9.63142 20
    endloop
  endfacet
  facet normal -0.442732 0.609368 0.657768
    outer loop
      vertex -16.0748 25.3298 0
      vertex -19.1227 23.1154 0
      vertex -7.9678 9.63142 20
    endloop
  endfacet
  facet normal -0.635965 0.403596 0.657768
    outer loop
      vertex -24.2705 17.6336 0
      vertex -26.2892 14.4526 0
      vertex -10.1127 7.34731 20
    endloop
  endfacet
  facet normal -0.716356 0.232758 0.657768
    outer loop
      vertex -27.8933 11.0437 0
      vertex -29.0575 7.4607 0
      vertex -12.1073 3.10862 20
    endloop
  endfacet
  facet normal -0.515615 -0.549074 0.657768
    outer loop
      vertex -7.9678 -9.63142 20
      vertex -21.8691 -20.5364 0
      vertex -19.1227 -23.1154 0
    endloop
  endfacet
  facet normal -0.442732 -0.609368 0.657768
    outer loop
      vertex -7.9678 -9.63142 20
      vertex -19.1227 -23.1154 0
      vertex -16.0748 -25.3298 0
    endloop
  endfacet
  facet normal -0.580367 -0.480121 0.657768
    outer loop
      vertex -9.11211 -8.55684 20
      vertex -24.2705 -17.6336 0
      vertex -21.8691 -20.5364 0
    endloop
  endfacet
  facet normal 0 0 -1
    outer loop
      vertex 4 0 0
      vertex 30 0 0
      vertex 29.7634 -3.76 0
    endloop
  endfacet
  facet normal 0 0 -1
    outer loop
      vertex 3.96846 -0.501332 0
      vertex 29.7634 -3.76 0
      vertex 29.0575 -7.4607 0
    endloop
  endfacet
  facet normal 0 0 -1
    outer loop
      vertex 30 0 0
      vertex 4 0 0
      vertex 29.7634 3.76 0
    endloop
  endfacet
  facet normal 0 0 -1
    outer loop
      vertex 3.87433 -0.994759 0
      vertex 29.0575 -7.4607 0
      vertex 27.8933 -11.0437 0
    endloop
  endfacet
  facet normal 0 0 -1
    outer loop
      vertex 3.96846 0.501332 0
      vertex 29.7634 3.76 0
      vertex 4 0 0
    endloop
  endfacet
  facet normal 0 0 -1
    outer loop
      vertex 3.71911 -1.4725 0
      vertex 27.8933 -11.0437 0
      vertex 26.2892 -14.4526 0
    endloop
  endfacet
  facet normal -0 0 -1
    outer loop
      vertex 29.7634 3.76 0
      vertex 3.96846 0.501332 0
      vertex 29.0575 7.4607 0
    endloop
  endfacet
  facet normal 0 0 -1
    outer loop
      vertex 3.50523 -1.92701 0
      vertex 26.2892 -14.4526 0
      vertex 24.2705 -17.6336 0
    endloop
  endfacet
  facet normal 0 0 -1
    outer loop
      vertex 3.87433 0.994759 0
      vertex 29.0575 7.4607 0
      vertex 3.96846 0.501332 0
    endloop
  endfacet
  facet normal 0 0 -1
    outer loop
      vertex 3.23607 -2.35114 0
      vertex 24.2705 -17.6336 0
      vertex 21.8691 -20.5364 0
    endloop
  endfacet
  facet normal -0 0 -1
    outer loop
      vertex 29.0575 7.4607 0
      vertex 3.87433 0.994759 0
      vertex 27.8933 11.0437 0
    endloop
  endfacet
  facet normal 0 0 -1
    outer loop
      vertex 2.91587 -2.73819 0
      vertex 21.8691 -20.5364 0
      vertex 19.1227 -23.1154 0
    endloop
  endfacet
  facet normal 0 0 -1
    outer loop
      vertex 3.71911 1.4725 0
      vertex 27.8933 11.0437 0
      vertex 3.87433 0.994759 0
    endloop
  endfacet
  facet normal 0 0 -1
    outer loop
      vertex 2.5497 -3.08205 0
      vertex 19.1227 -23.1154 0
      vertex 16.0748 -25.3298 0
    endloop
  endfacet
  facet normal -0 0 -1
    outer loop
      vertex 27.8933 11.0437 0
      vertex 3.71911 1.4725 0
      vertex 26.2892 14.4526 0
    endloop
  endfacet
  facet normal 0 0 -1
    outer loop
      vertex 2.14331 -3.37731 0
      vertex 16.0748 -25.3298 0
      vertex 12.7734 -27.1448 0
    endloop
  endfacet
  facet normal 0 0 -1
    outer loop
      vertex 3.50523 1.92701 0
      vertex 26.2892 14.4526 0
      vertex 3.71911 1.4725 0
    endloop
  endfacet
  facet normal 0 0 -1
    outer loop
      vertex 1.70312 -3.61931 0
      vertex 12.7734 -27.1448 0
      vertex 9.27051 -28.5317 0
    endloop
  endfacet
  facet normal -0 0 -1
    outer loop
      vertex 26.2892 14.4526 0
      vertex 3.50523 1.92701 0
      vertex 24.2705 17.6336 0
    endloop
  endfacet
  facet normal 0 0 -1
    outer loop
      vertex 1.23607 -3.80423 0
      vertex 9.27051 -28.5317 0
      vertex 5.62144 -29.4686 0
    endloop
  endfacet
  facet normal 0 0 -1
    outer loop
      vertex 3.23607 2.35114 0
      vertex 24.2705 17.6336 0
      vertex 3.50523 1.92701 0
    endloop
  endfacet
  facet normal -0 0 -1
    outer loop
      vertex 24.2705 17.6336 0
      vertex 3.23607 2.35114 0
      vertex 21.8691 20.5364 0
    endloop
  endfacet
  facet normal 0 0 -1
    outer loop
      vertex 29.7634 -3.76 0
      vertex 3.96846 -0.501332 0
      vertex 4 0 0
    endloop
  endfacet
  facet normal 0 0 -1
    outer loop
      vertex 29.0575 -7.4607 0
      vertex 3.87433 -0.994759 0
      vertex 3.96846 -0.501332 0
    endloop
  endfacet
  facet normal 0 0 -1
    outer loop
      vertex 27.8933 -11.0437 0
      vertex 3.71911 -1.4725 0
      vertex 3.87433 -0.994759 0
    endloop
  endfacet
  facet normal 0 0 -1
    outer loop
      vertex 26.2892 -14.4526 0
      vertex 3.50523 -1.92701 0
      vertex 3.71911 -1.4725 0
    endloop
  endfacet
  facet normal 0 0 -1
    outer loop
      vertex 24.2705 -17.6336 0
      vertex 3.23607 -2.35114 0
      vertex 3.50523 -1.92701 0
    endloop
  endfacet
  facet normal 0 0 -1
    outer loop
      vertex 21.8691 -20.5364 0
      vertex 2.91587 -2.73819 0
      vertex 3.23607 -2.35114 0
    endloop
  endfacet
  facet normal 0 0 -1
    outer loop
      vertex 19.1227 -23.1154 0
      vertex 2.5497 -3.08205 0
      vertex 2.91587 -2.73819 0
    endloop
  endfacet
  facet normal 0 0 -1
    outer loop
      vertex 16.0748 -25.3298 0
      vertex 2.14331 -3.37731 0
      vertex 2.5497 -3.08205 0
    endloop
  endfacet
  facet normal 0 0 -1
    outer loop
      vertex 0.749525 -3.92915 0
      vertex 5.62144 -29.4686 0
      vertex 1.88371 -29.9408 0
    endloop
  endfacet
  facet normal 0 0 -1
    outer loop
      vertex 12.7734 -27.1448 0
      vertex 1.70312 -3.61931 0
      vertex 2.14331 -3.37731 0
    endloop
  endfacet
  facet normal 0 0 -1
    outer loop
      vertex 9.27051 -28.5317 0
      vertex 1.23607 -3.80423 0
      vertex 1.70312 -3.61931 0
    endloop
  endfacet
  facet normal 0 0 -1
    outer loop
      vertex 5.62144 -29.4686 0
      vertex 0.749525 -3.92915 0
      vertex 1.23607 -3.80423 0
    endloop
  endfacet
  facet normal 0 0 -1
    outer loop
      vertex 1.88371 -29.9408 0
      vertex 0.251162 -3.99211 0
      vertex 0.749525 -3.92915 0
    endloop
  endfacet
  facet normal 0 0 -1
    outer loop
      vertex 1.88371 -29.9408 0
      vertex -0.251162 -3.99211 0
      vertex 0.251162 -3.99211 0
    endloop
  endfacet
  facet normal 0 0 -1
    outer loop
      vertex -1.88371 -29.9408 0
      vertex -0.251162 -3.99211 0
      vertex 1.88371 -29.9408 0
    endloop
  endfacet
  facet normal -0 0 -1
    outer loop
      vertex -0.251162 -3.99211 0
      vertex -1.88371 -29.9408 0
      vertex -0.749525 -3.92915 0
    endloop
  endfacet
  facet normal 0 0 -1
    outer loop
      vertex -5.62144 -29.4686 0
      vertex -0.749525 -3.92915 0
      vertex -1.88371 -29.9408 0
    endloop
  endfacet
  facet normal -0 0 -1
    outer loop
      vertex -0.749525 -3.92915 0
      vertex -5.62144 -29.4686 0
      vertex -1.23607 -3.80423 0
    endloop
  endfacet
  facet normal 0 0 -1
    outer loop
      vertex -9.27051 -28.5317 0
      vertex -1.23607 -3.80423 0
      vertex -5.62144 -29.4686 0
    endloop
  endfacet
  facet normal -0 0 -1
    outer loop
      vertex -1.23607 -3.80423 0
      vertex -9.27051 -28.5317 0
      vertex -1.70312 -3.61931 0
    endloop
  endfacet
  facet normal 0 0 -1
    outer loop
      vertex -12.7734 -27.1448 0
      vertex -1.70312 -3.61931 0
      vertex -9.27051 -28.5317 0
    endloop
  endfacet
  facet normal -0 0 -1
    outer loop
      vertex -1.70312 -3.61931 0
      vertex -12.7734 -27.1448 0
      vertex -2.14331 -3.37731 0
    endloop
  endfacet
  facet normal 0 0 -1
    outer loop
      vertex -16.0748 -25.3298 0
      vertex -2.14331 -3.37731 0
      vertex -12.7734 -27.1448 0
    endloop
  endfacet
  facet normal -0 0 -1
    outer loop
      vertex -2.14331 -3.37731 0
      vertex -16.0748 -25.3298 0
      vertex -2.5497 -3.08205 0
    endloop
  endfacet
  facet normal 0 0 -1
    outer loop
      vertex -19.1227 -23.1154 0
      vertex -2.5497 -3.08205 0
      vertex -16.0748 -25.3298 0
    endloop
  endfacet
  facet normal -0 0 -1
    outer loop
      vertex -2.5497 -3.08205 0
      vertex -19.1227 -23.1154 0
      vertex -2.91587 -2.73819 0
    endloop
  endfacet
  facet normal -0 0 -1
    outer loop
      vertex -2.91587 -2.73819 0
      vertex -21.8691 -20.5364 0
      vertex -3.23607 -2.35114 0
    endloop
  endfacet
  facet normal 0 0 -1
    outer loop
      vertex -21.8691 -20.5364 0
      vertex -2.91587 -2.73819 0
      vertex -19.1227 -23.1154 0
    endloop
  endfacet
  facet normal 0 0 -1
    outer loop
      vertex 2.91587 2.73819 0
      vertex 21.8691 20.5364 0
      vertex 3.23607 2.35114 0
    endloop
  endfacet
  facet normal -0 0 -1
    outer loop
      vertex 21.8691 20.5364 0
      vertex 2.91587 2.73819 0
      vertex 19.1227 23.1154 0
    endloop
  endfacet
  facet normal 0 0 -1
    outer loop
      vertex 2.5497 3.08205 0
      vertex 19.1227 23.1154 0
      vertex 2.91587 2.73819 0
    endloop
  endfacet
  facet normal -0 0 -1
    outer loop
      vertex 19.1227 23.1154 0
      vertex 2.5497 3.08205 0
      vertex 16.0748 25.3298 0
    endloop
  endfacet
  facet normal 0 0 -1
    outer loop
      vertex 2.14331 3.37731 0
      vertex 16.0748 25.3298 0
      vertex 2.5497 3.08205 0
    endloop
  endfacet
  facet normal -0 0 -1
    outer loop
      vertex 16.0748 25.3298 0
      vertex 2.14331 3.37731 0
      vertex 12.7734 27.1448 0
    endloop
  endfacet
  facet normal 0 0 -1
    outer loop
      vertex 1.70312 3.61931 0
      vertex 12.7734 27.1448 0
      vertex 2.14331 3.37731 0
    endloop
  endfacet
  facet normal -0 0 -1
    outer loop
      vertex 12.7734 27.1448 0
      vertex 1.70312 3.61931 0
      vertex 9.27051 28.5317 0
    endloop
  endfacet
  facet normal 0 0 -1
    outer loop
      vertex 1.23607 3.80423 0
      vertex 9.27051 28.5317 0
      vertex 1.70312 3.61931 0
    endloop
  endfacet
  facet normal -0 0 -1
    outer loop
      vertex 9.27051 28.5317 0
      vertex 1.23607 3.80423 0
      vertex 5.62144 29.4686 0
    endloop
  endfacet
  facet normal 0 0 -1
    outer loop
      vertex 0.749525 3.92915 0
      vertex 5.62144 29.4686 0
      vertex 1.23607 3.80423 0
    endloop
  endfacet
  facet normal -0 0 -1
    outer loop
      vertex 5.62144 29.4686 0
      vertex 0.749525 3.92915 0
      vertex 1.88371 29.9408 0
    endloop
  endfacet
  facet normal 0 0 -1
    outer loop
      vertex 0.251162 3.99211 0
      vertex 1.88371 29.9408 0
      vertex 0.749525 3.92915 0
    endloop
  endfacet
  facet normal 0 0 -1
    outer loop
      vertex -0.251162 3.99211 0
      vertex 1.88371 29.9408 0
      vertex 0.251162 3.99211 0
    endloop
  endfacet
  facet normal 0 0 -1
    outer loop
      vertex -1.88371 29.9408 0
      vertex -0.251162 3.99211 0
      vertex -0.749525 3.92915 0
    endloop
  endfacet
  facet normal 0 0 -1
    outer loop
      vertex -5.62144 29.4686 0
      vertex -0.749525 3.92915 0
      vertex -1.23607 3.80423 0
    endloop
  endfacet
  facet normal 0 0 -1
    outer loop
      vertex -9.27051 28.5317 0
      vertex -1.23607 3.80423 0
      vertex -1.70312 3.61931 0
    endloop
  endfacet
  facet normal 0 0 -1
    outer loop
      vertex -0.251162 3.99211 0
      vertex -1.88371 29.9408 0
      vertex 1.88371 29.9408 0
    endloop
  endfacet
  facet normal 0 0 -1
    outer loop
      vertex -12.7734 27.1448 0
      vertex -1.70312 3.61931 0
      vertex -2.14331 3.37731 0
    endloop
  endfacet
  facet normal 0 0 -1
    outer loop
      vertex -16.0748 25.3298 0
      vertex -2.14331 3.37731 0
      vertex -2.5497 3.08205 0
    endloop
  endfacet
  facet normal 0 0 -1
    outer loop
      vertex -19.1227 23.1154 0
      vertex -2.5497 3.08205 0
      vertex -2.91587 2.73819 0
    endloop
  endfacet
  facet normal 0 0 -1
    outer loop
      vertex -21.8691 20.5364 0
      vertex -2.91587 2.73819 0
      vertex -3.23607 2.35114 0
    endloop
  endfacet
  facet normal 0 0 -1
    outer loop
      vertex -24.2705 17.6336 0
      vertex -3.23607 2.35114 0
      vertex -3.50523 1.92701 0
    endloop
  endfacet
  facet normal 0 0 -1
    outer loop
      vertex -26.2892 14.4526 0
      vertex -3.50523 1.92701 0
      vertex -3.71911 1.4725 0
    endloop
  endfacet
  facet normal 0 0 -1
    outer loop
      vertex -27.8933 11.0437 0
      vertex -3.71911 1.4725 0
      vertex -3.87433 0.994759 0
    endloop
  endfacet
  facet normal 0 0 -1
    outer loop
      vertex -29.0575 7.4607 0
      vertex -3.87433 0.994759 0
      vertex -3.96846 0.501332 0
    endloop
  endfacet
  facet normal 0 0 -1
    outer loop
      vertex -0.749525 3.92915 0
      vertex -5.62144 29.4686 0
      vertex -1.88371 29.9408 0
    endloop
  endfacet
  facet normal 0 0 -1
    outer loop
      vertex -29.7634 3.76 0
      vertex -3.96846 0.501332 0
      vertex -4 0 0
    endloop
  endfacet
  facet normal 0 0 -1
    outer loop
      vertex -24.2705 -17.6336 0
      vertex -3.23607 -2.35114 0
      vertex -21.8691 -20.5364 0
    endloop
  endfacet
  facet normal -0 0 -1
    outer loop
      vertex -3.23607 -2.35114 0
      vertex -24.2705 -17.6336 0
      vertex -3.50523 -1.92701 0
    endloop
  endfacet
  facet normal 0 0 -1
    outer loop
      vertex -1.23607 3.80423 0
      vertex -9.27051 28.5317 0
      vertex -5.62144 29.4686 0
    endloop
  endfacet
  facet normal 0 0 -1
    outer loop
      vertex -26.2892 -14.4526 0
      vertex -3.50523 -1.92701 0
      vertex -24.2705 -17.6336 0
    endloop
  endfacet
  facet normal 0 0 -1
    outer loop
      vertex -1.70312 3.61931 0
      vertex -12.7734 27.1448 0
      vertex -9.27051 28.5317 0
    endloop
  endfacet
  facet normal -0 0 -1
    outer loop
      vertex -3.50523 -1.92701 0
      vertex -26.2892 -14.4526 0
      vertex -3.71911 -1.4725 0
    endloop
  endfacet
  facet normal 0 0 -1
    outer loop
      vertex -2.14331 3.37731 0
      vertex -16.0748 25.3298 0
      vertex -12.7734 27.1448 0
    endloop
  endfacet
  facet normal 0 0 -1
    outer loop
      vertex -27.8933 -11.0437 0
      vertex -3.71911 -1.4725 0
      vertex -26.2892 -14.4526 0
    endloop
  endfacet
  facet normal 0 0 -1
    outer loop
      vertex -2.5497 3.08205 0
      vertex -19.1227 23.1154 0
      vertex -16.0748 25.3298 0
    endloop
  endfacet
  facet normal -0 0 -1
    outer loop
      vertex -3.71911 -1.4725 0
      vertex -27.8933 -11.0437 0
      vertex -3.87433 -0.994759 0
    endloop
  endfacet
  facet normal 0 0 -1
    outer loop
      vertex -2.91587 2.73819 0
      vertex -21.8691 20.5364 0
      vertex -19.1227 23.1154 0
    endloop
  endfacet
  facet normal 0 0 -1
    outer loop
      vertex -29.0575 -7.4607 0
      vertex -3.87433 -0.994759 0
      vertex -27.8933 -11.0437 0
    endloop
  endfacet
  facet normal 0 0 -1
    outer loop
      vertex -3.23607 2.35114 0
      vertex -24.2705 17.6336 0
      vertex -21.8691 20.5364 0
    endloop
  endfacet
  facet normal -0 0 -1
    outer loop
      vertex -3.87433 -0.994759 0
      vertex -29.0575 -7.4607 0
      vertex -3.96846 -0.501332 0
    endloop
  endfacet
  facet normal 0 0 -1
    outer loop
      vertex -3.50523 1.92701 0
      vertex -26.2892 14.4526 0
      vertex -24.2705 17.6336 0
    endloop
  endfacet
  facet normal 0 0 -1
    outer loop
      vertex -29.7634 -3.76 0
      vertex -3.96846 -0.501332 0
      vertex -29.0575 -7.4607 0
    endloop
  endfacet
  facet normal 0 0 -1
    outer loop
      vertex -3.71911 1.4725 0
      vertex -27.8933 11.0437 0
      vertex -26.2892 14.4526 0
    endloop
  endfacet
  facet normal -0 0 -1
    outer loop
      vertex -3.96846 -0.501332 0
      vertex -29.7634 -3.76 0
      vertex -4 0 0
    endloop
  endfacet
  facet normal 0 0 -1
    outer loop
      vertex -3.87433 0.994759 0
      vertex -29.0575 7.4607 0
      vertex -27.8933 11.0437 0
    endloop
  endfacet
  facet normal 0 0 -1
    outer loop
      vertex -30 0 0
      vertex -4 0 0
      vertex -29.7634 -3.76 0
    endloop
  endfacet
  facet normal 0 0 -1
    outer loop
      vertex -3.96846 0.501332 0
      vertex -29.7634 3.76 0
      vertex -29.0575 7.4607 0
    endloop
  endfacet
  facet normal 0 0 -1
    outer loop
      vertex -4 0 0
      vertex -30 0 0
      vertex -29.7634 3.76 0
    endloop
  endfacet
  facet normal 0.187319 0.729557 0.657768
    outer loop
      vertex 9.27051 28.5317 0
      vertex 2.34227 12.2786 20
      vertex 3.86271 11.8882 20
    endloop
  endfacet
  facet normal 0 0.753221 0.657768
    outer loop
      vertex 1.88371 29.9408 0
      vertex -0.784881 12.4753 20
      vertex 0.784881 12.4753 20
    endloop
  endfacet
  facet normal 0 0.753221 0.657768
    outer loop
      vertex -0.784881 12.4753 20
      vertex 1.88371 29.9408 0
      vertex -1.88371 29.9408 0
    endloop
  endfacet
  facet normal 0.362867 0.660053 0.657768
    outer loop
      vertex 12.7734 27.1448 0
      vertex 5.32224 11.3103 20
      vertex 16.0748 25.3298 0
    endloop
  endfacet
  facet normal 0.515615 0.549074 0.657768
    outer loop
      vertex 21.8691 20.5364 0
      vertex 7.9678 9.63142 20
      vertex 9.11211 8.55684 20
    endloop
  endfacet
  facet normal -0.187318 0.729557 0.657768
    outer loop
      vertex -5.62144 29.4686 0
      vertex -9.27051 28.5317 0
      vertex -2.34227 12.2786 20
    endloop
  endfacet
  facet normal -0.0944038 0.747281 0.657768
    outer loop
      vertex -1.88371 29.9408 0
      vertex -5.62144 29.4686 0
      vertex -2.34227 12.2786 20
    endloop
  endfacet
  facet normal 0.580367 0.480121 0.657768
    outer loop
      vertex 21.8691 20.5364 0
      vertex 9.11211 8.55684 20
      vertex 24.2705 17.6336 0
    endloop
  endfacet
  facet normal 0.716356 0.232758 0.657768
    outer loop
      vertex 27.8933 11.0437 0
      vertex 12.1073 3.10862 20
      vertex 29.0575 7.4607 0
    endloop
  endfacet
  facet normal 0.716356 0.232758 0.657768
    outer loop
      vertex 27.8933 11.0437 0
      vertex 11.6222 4.60156 20
      vertex 12.1073 3.10862 20
    endloop
  endfacet
  facet normal 0.635965 0.403596 0.657768
    outer loop
      vertex 26.2892 14.4526 0
      vertex 10.1127 7.34731 20
      vertex 10.9538 6.02192 20
    endloop
  endfacet
  facet normal -0.362867 -0.660053 0.657768
    outer loop
      vertex -5.32224 -11.3103 20
      vertex -16.0748 -25.3298 0
      vertex -12.7734 -27.1448 0
    endloop
  endfacet
  facet normal 0 -0.753221 0.657768
    outer loop
      vertex -1.88371 -29.9408 0
      vertex 0.784881 -12.4753 20
      vertex -0.784881 -12.4753 20
    endloop
  endfacet
  facet normal 0 -0.753221 0.657768
    outer loop
      vertex 0.784881 -12.4753 20
      vertex -1.88371 -29.9408 0
      vertex 1.88371 -29.9408 0
    endloop
  endfacet
  facet normal 0.362867 -0.660052 0.657768
    outer loop
      vertex 6.69783 -10.5541 20
      vertex 5.32224 -11.3103 20
      vertex 16.0748 -25.3298 0
    endloop
  endfacet
  facet normal 0.362867 -0.660053 0.657768
    outer loop
      vertex 16.0748 -25.3298 0
      vertex 5.32224 -11.3103 20
      vertex 12.7734 -27.1448 0
    endloop
  endfacet
  facet normal 0.27728 -0.700327 0.657768
    outer loop
      vertex 12.7734 -27.1448 0
      vertex 5.32224 -11.3103 20
      vertex 9.27051 -28.5317 0
    endloop
  endfacet
  facet normal 0.681534 -0.320706 0.657768
    outer loop
      vertex 27.8933 -11.0437 0
      vertex 11.6222 -4.60156 20
      vertex 26.2892 -14.4526 0
    endloop
  endfacet
  facet normal 0.580367 -0.480121 0.657768
    outer loop
      vertex 10.1127 -7.34731 20
      vertex 9.11211 -8.55684 20
      vertex 24.2705 -17.6336 0
    endloop
  endfacet
  facet normal 0.716356 -0.232758 0.657768
    outer loop
      vertex 12.1073 -3.10862 20
      vertex 11.6222 -4.60156 20
      vertex 27.8933 -11.0437 0
    endloop
  endfacet
  facet normal -0.277279 0.700327 0.657768
    outer loop
      vertex -3.86271 11.8882 20
      vertex -9.27051 28.5317 0
      vertex -5.32224 11.3103 20
    endloop
  endfacet
  facet normal -0.515615 0.549074 0.657768
    outer loop
      vertex -19.1227 23.1154 0
      vertex -21.8691 20.5364 0
      vertex -7.9678 9.63142 20
    endloop
  endfacet
  facet normal -0.515615 0.549074 0.657768
    outer loop
      vertex -7.9678 9.63142 20
      vertex -21.8691 20.5364 0
      vertex -9.11211 8.55684 20
    endloop
  endfacet
  facet normal -0.635965 0.403596 0.657768
    outer loop
      vertex -10.1127 7.34731 20
      vertex -26.2892 14.4526 0
      vertex -10.9538 6.02192 20
    endloop
  endfacet
  facet normal -0.681534 0.320706 0.657768
    outer loop
      vertex -10.9538 6.02192 20
      vertex -26.2892 14.4526 0
      vertex -11.6222 4.60156 20
    endloop
  endfacet
  facet normal -0.716356 0.232758 0.657768
    outer loop
      vertex -11.6222 4.60156 20
      vertex -27.8933 11.0437 0
      vertex -12.1073 3.10862 20
    endloop
  endfacet
  facet normal -0.27728 -0.700327 0.657768
    outer loop
      vertex -5.32224 -11.3103 20
      vertex -12.7734 -27.1448 0
      vertex -9.27051 -28.5317 0
    endloop
  endfacet
  facet normal -0.716356 -0.232758 0.657768
    outer loop
      vertex -12.1073 -3.10862 20
      vertex -29.0575 -7.4607 0
      vertex -27.8933 -11.0437 0
    endloop
  endfacet
  facet normal -0.739879 -0.141139 0.657768
    outer loop
      vertex -12.1073 -3.10862 20
      vertex -29.7634 -3.76 0
      vertex -29.0575 -7.4607 0
    endloop
  endfacet
  facet normal -0.739879 -0.141139 0.657768
    outer loop
      vertex -12.4014 -1.56666 20
      vertex -29.7634 -3.76 0
      vertex -12.1073 -3.10862 20
    endloop
  endfacet
  facet normal 0.0944034 0.747281 0.657768
    outer loop
      vertex 1.88371 29.9408 0
      vertex 0.784881 12.4753 20
      vertex 2.34227 12.2786 20
    endloop
  endfacet
  facet normal 0.0944038 0.747281 0.657768
    outer loop
      vertex 5.62144 29.4686 0
      vertex 1.88371 29.9408 0
      vertex 2.34227 12.2786 20
    endloop
  endfacet
  facet normal 0.27728 0.700327 0.657768
    outer loop
      vertex 9.27051 28.5317 0
      vertex 5.32224 11.3103 20
      vertex 12.7734 27.1448 0
    endloop
  endfacet
  facet normal 0.277279 0.700327 0.657768
    outer loop
      vertex 9.27051 28.5317 0
      vertex 3.86271 11.8882 20
      vertex 5.32224 11.3103 20
    endloop
  endfacet
  facet normal 0.739879 0.141139 0.657768
    outer loop
      vertex 29.7634 3.76 0
      vertex 12.1073 3.10862 20
      vertex 12.4014 1.56666 20
    endloop
  endfacet
  facet normal 0.681534 0.320706 0.657768
    outer loop
      vertex 26.2892 14.4526 0
      vertex 10.9538 6.02192 20
      vertex 11.6222 4.60156 20
    endloop
  endfacet
  facet normal -0.187318 -0.729557 0.657768
    outer loop
      vertex -2.34227 -12.2786 20
      vertex -9.27051 -28.5317 0
      vertex -5.62144 -29.4686 0
    endloop
  endfacet
  facet normal 0.0944038 -0.747281 0.657768
    outer loop
      vertex 2.34227 -12.2786 20
      vertex 1.88371 -29.9408 0
      vertex 5.62144 -29.4686 0
    endloop
  endfacet
  facet normal 0.187319 -0.729557 0.657768
    outer loop
      vertex 3.86271 -11.8882 20
      vertex 2.34227 -12.2786 20
      vertex 9.27051 -28.5317 0
    endloop
  endfacet
  facet normal -0.0944034 -0.747281 0.657768
    outer loop
      vertex -0.784881 -12.4753 20
      vertex -2.34227 -12.2786 20
      vertex -1.88371 -29.9408 0
    endloop
  endfacet
  facet normal 0.442732 -0.609369 0.657768
    outer loop
      vertex 7.9678 -9.63142 20
      vertex 6.69783 -10.5541 20
      vertex 16.0748 -25.3298 0
    endloop
  endfacet
  facet normal 0.515615 -0.549074 0.657768
    outer loop
      vertex 21.8691 -20.5364 0
      vertex 7.9678 -9.63142 20
      vertex 19.1227 -23.1154 0
    endloop
  endfacet
  facet normal 0.635965 -0.403596 0.657768
    outer loop
      vertex 26.2892 -14.4526 0
      vertex 10.1127 -7.34731 20
      vertex 24.2705 -17.6336 0
    endloop
  endfacet
  facet normal 0.739879 -0.141139 0.657768
    outer loop
      vertex 29.7634 -3.76 0
      vertex 12.1073 -3.10862 20
      vertex 29.0575 -7.4607 0
    endloop
  endfacet
  facet normal -0.362867 0.660052 0.657768
    outer loop
      vertex -5.32224 11.3103 20
      vertex -16.0748 25.3298 0
      vertex -6.69783 10.5541 20
    endloop
  endfacet
  facet normal -0.739879 0.141139 0.657768
    outer loop
      vertex -12.1073 3.10862 20
      vertex -29.7634 3.76 0
      vertex -12.4014 1.56666 20
    endloop
  endfacet
  facet normal -0.751735 0.0472955 0.657768
    outer loop
      vertex -12.4014 1.56666 20
      vertex -29.7634 3.76 0
      vertex -12.5 0 20
    endloop
  endfacet
  facet normal -0.362867 -0.660052 0.657768
    outer loop
      vertex -6.69783 -10.5541 20
      vertex -16.0748 -25.3298 0
      vertex -5.32224 -11.3103 20
    endloop
  endfacet
  facet normal -0.277279 -0.700327 0.657768
    outer loop
      vertex -5.32224 -11.3103 20
      vertex -9.27051 -28.5317 0
      vertex -3.86271 -11.8882 20
    endloop
  endfacet
  facet normal -0.187319 -0.729557 0.657768
    outer loop
      vertex -3.86271 -11.8882 20
      vertex -9.27051 -28.5317 0
      vertex -2.34227 -12.2786 20
    endloop
  endfacet
  facet normal -0.716356 -0.232758 0.657768
    outer loop
      vertex -12.1073 -3.10862 20
      vertex -27.8933 -11.0437 0
      vertex -11.6222 -4.60156 20
    endloop
  endfacet
  facet normal -0.681534 -0.320706 0.657768
    outer loop
      vertex -11.6222 -4.60156 20
      vertex -26.2892 -14.4526 0
      vertex -10.9538 -6.02192 20
    endloop
  endfacet
  facet normal -0.681534 -0.320706 0.657768
    outer loop
      vertex -11.6222 -4.60156 20
      vertex -27.8933 -11.0437 0
      vertex -26.2892 -14.4526 0
    endloop
  endfacet
  facet normal -0.635965 -0.403596 0.657768
    outer loop
      vertex -10.1127 -7.34731 20
      vertex -26.2892 -14.4526 0
      vertex -24.2705 -17.6336 0
    endloop
  endfacet
  facet normal -0.580367 -0.480121 0.657768
    outer loop
      vertex -10.1127 -7.34731 20
      vertex -24.2705 -17.6336 0
      vertex -9.11211 -8.55684 20
    endloop
  endfacet
  facet normal -0.751735 -0.0472955 0.657768
    outer loop
      vertex -12.5 0 20
      vertex -29.7634 -3.76 0
      vertex -12.4014 -1.56666 20
    endloop
  endfacet
  facet normal -0.751735 -0.0472955 0.657768
    outer loop
      vertex -12.5 0 20
      vertex -30 0 0
      vertex -29.7634 -3.76 0
    endloop
  endfacet
  facet normal 0.442732 0.609369 0.657768
    outer loop
      vertex 16.0748 25.3298 0
      vertex 6.69783 10.5541 20
      vertex 7.9678 9.63142 20
    endloop
  endfacet
  facet normal 0.751735 0.0472955 0.657768
    outer loop
      vertex 29.7634 3.76 0
      vertex 12.4014 1.56666 20
      vertex 12.5 0 20
    endloop
  endfacet
  facet normal 0.0944034 -0.747281 0.657768
    outer loop
      vertex 2.34227 -12.2786 20
      vertex 0.784881 -12.4753 20
      vertex 1.88371 -29.9408 0
    endloop
  endfacet
  facet normal 0.515615 -0.549074 0.657768
    outer loop
      vertex 9.11211 -8.55684 20
      vertex 7.9678 -9.63142 20
      vertex 21.8691 -20.5364 0
    endloop
  endfacet
  facet normal 0.442732 -0.609368 0.657768
    outer loop
      vertex 19.1227 -23.1154 0
      vertex 7.9678 -9.63142 20
      vertex 16.0748 -25.3298 0
    endloop
  endfacet
  facet normal 0.681534 -0.320706 0.657768
    outer loop
      vertex 11.6222 -4.60156 20
      vertex 10.9538 -6.02192 20
      vertex 26.2892 -14.4526 0
    endloop
  endfacet
  facet normal 0.739879 -0.141139 0.657768
    outer loop
      vertex 12.4014 -1.56666 20
      vertex 12.1073 -3.10862 20
      vertex 29.7634 -3.76 0
    endloop
  endfacet
  facet normal 0.751735 -0.0472955 0.657768
    outer loop
      vertex 12.5 0 20
      vertex 12.4014 -1.56666 20
      vertex 29.7634 -3.76 0
    endloop
  endfacet
  facet normal -0.442732 -0.609369 0.657768
    outer loop
      vertex -7.9678 -9.63142 20
      vertex -16.0748 -25.3298 0
      vertex -6.69783 -10.5541 20
    endloop
  endfacet
  facet normal -0.998027 -0.0627918 0
    outer loop
      vertex 4 0 0
      vertex 3.96846 0.501332 20
      vertex 3.96846 0.501332 0
    endloop
  endfacet
  facet normal -0.998027 -0.0627918 0
    outer loop
      vertex 3.96846 0.501332 20
      vertex 4 0 0
      vertex 4 0 20
    endloop
  endfacet
  facet normal 0.998027 -0.0627918 0
    outer loop
      vertex -4 0 20
      vertex -3.96846 0.501332 0
      vertex -3.96846 0.501332 20
    endloop
  endfacet
  facet normal 0.998027 -0.0627918 0
    outer loop
      vertex -3.96846 0.501332 0
      vertex -4 0 20
      vertex -4 0 0
    endloop
  endfacet
  facet normal 0 -1 0
    outer loop
      vertex -0.251162 3.99211 0
      vertex 0.251162 3.99211 20
      vertex -0.251162 3.99211 20
    endloop
  endfacet
  facet normal 0 -1 -0
    outer loop
      vertex 0.251162 3.99211 20
      vertex -0.251162 3.99211 0
      vertex 0.251162 3.99211 0
    endloop
  endfacet
  facet normal 0 1 -0
    outer loop
      vertex 0.251162 -3.99211 0
      vertex -0.251162 -3.99211 20
      vertex 0.251162 -3.99211 20
    endloop
  endfacet
  facet normal 0 1 0
    outer loop
      vertex -0.251162 -3.99211 20
      vertex 0.251162 -3.99211 0
      vertex -0.251162 -3.99211 0
    endloop
  endfacet
  facet normal -0.684546 -0.72897 0
    outer loop
      vertex 2.5497 3.08205 0
      vertex 2.91587 2.73819 20
      vertex 2.5497 3.08205 20
    endloop
  endfacet
  facet normal -0.684546 -0.72897 -0
    outer loop
      vertex 2.91587 2.73819 20
      vertex 2.5497 3.08205 0
      vertex 2.91587 2.73819 0
    endloop
  endfacet
  facet normal 0.684546 -0.72897 0
    outer loop
      vertex -2.91587 2.73819 0
      vertex -2.5497 3.08205 20
      vertex -2.91587 2.73819 20
    endloop
  endfacet
  facet normal 0.684546 -0.72897 0
    outer loop
      vertex -2.5497 3.08205 20
      vertex -2.91587 2.73819 0
      vertex -2.5497 3.08205 0
    endloop
  endfacet
  facet normal 0.368126 -0.929776 0
    outer loop
      vertex -1.70312 3.61931 0
      vertex -1.23607 3.80423 20
      vertex -1.70312 3.61931 20
    endloop
  endfacet
  facet normal 0.368126 -0.929776 0
    outer loop
      vertex -1.23607 3.80423 20
      vertex -1.70312 3.61931 0
      vertex -1.23607 3.80423 0
    endloop
  endfacet
  facet normal -0.904827 -0.42578 0
    outer loop
      vertex 3.71911 1.4725 0
      vertex 3.50523 1.92701 20
      vertex 3.50523 1.92701 0
    endloop
  endfacet
  facet normal -0.904827 -0.42578 0
    outer loop
      vertex 3.50523 1.92701 20
      vertex 3.71911 1.4725 0
      vertex 3.71911 1.4725 20
    endloop
  endfacet
  facet normal -0.844328 -0.535826 0
    outer loop
      vertex 3.50523 1.92701 0
      vertex 3.23607 2.35114 20
      vertex 3.23607 2.35114 0
    endloop
  endfacet
  facet normal -0.844328 -0.535826 0
    outer loop
      vertex 3.23607 2.35114 20
      vertex 3.50523 1.92701 0
      vertex 3.50523 1.92701 20
    endloop
  endfacet
  facet normal -0.368126 -0.929776 0
    outer loop
      vertex 1.23607 3.80423 0
      vertex 1.70312 3.61931 20
      vertex 1.23607 3.80423 20
    endloop
  endfacet
  facet normal -0.368126 -0.929776 -0
    outer loop
      vertex 1.70312 3.61931 20
      vertex 1.23607 3.80423 0
      vertex 1.70312 3.61931 0
    endloop
  endfacet
  facet normal -0.24869 -0.968583 0
    outer loop
      vertex 0.749525 3.92915 0
      vertex 1.23607 3.80423 20
      vertex 0.749525 3.92915 20
    endloop
  endfacet
  facet normal -0.24869 -0.968583 -0
    outer loop
      vertex 1.23607 3.80423 20
      vertex 0.749525 3.92915 0
      vertex 1.23607 3.80423 0
    endloop
  endfacet
  facet normal -0.587785 -0.809017 0
    outer loop
      vertex 2.14331 3.37731 0
      vertex 2.5497 3.08205 20
      vertex 2.14331 3.37731 20
    endloop
  endfacet
  facet normal -0.587785 -0.809017 -0
    outer loop
      vertex 2.5497 3.08205 20
      vertex 2.14331 3.37731 0
      vertex 2.5497 3.08205 0
    endloop
  endfacet
  facet normal 0.844328 -0.535826 0
    outer loop
      vertex -3.50523 1.92701 20
      vertex -3.23607 2.35114 0
      vertex -3.23607 2.35114 20
    endloop
  endfacet
  facet normal 0.844328 -0.535826 0
    outer loop
      vertex -3.23607 2.35114 0
      vertex -3.50523 1.92701 20
      vertex -3.50523 1.92701 0
    endloop
  endfacet
  facet normal 0.770513 -0.637424 0
    outer loop
      vertex -3.23607 2.35114 20
      vertex -2.91587 2.73819 0
      vertex -2.91587 2.73819 20
    endloop
  endfacet
  facet normal 0.770513 -0.637424 0
    outer loop
      vertex -2.91587 2.73819 0
      vertex -3.23607 2.35114 20
      vertex -3.23607 2.35114 0
    endloop
  endfacet
  facet normal 0.951057 -0.309017 0
    outer loop
      vertex -3.87433 0.994759 20
      vertex -3.71911 1.4725 0
      vertex -3.71911 1.4725 20
    endloop
  endfacet
  facet normal 0.951057 -0.309017 0
    outer loop
      vertex -3.71911 1.4725 0
      vertex -3.87433 0.994759 20
      vertex -3.87433 0.994759 0
    endloop
  endfacet
  facet normal 0.481754 -0.876307 0
    outer loop
      vertex -2.14331 3.37731 0
      vertex -1.70312 3.61931 20
      vertex -2.14331 3.37731 20
    endloop
  endfacet
  facet normal 0.481754 -0.876307 0
    outer loop
      vertex -1.70312 3.61931 20
      vertex -2.14331 3.37731 0
      vertex -1.70312 3.61931 0
    endloop
  endfacet
  facet normal 0.24869 -0.968583 0
    outer loop
      vertex -1.23607 3.80423 0
      vertex -0.749525 3.92915 20
      vertex -1.23607 3.80423 20
    endloop
  endfacet
  facet normal 0.24869 -0.968583 0
    outer loop
      vertex -0.749525 3.92915 20
      vertex -1.23607 3.80423 0
      vertex -0.749525 3.92915 0
    endloop
  endfacet
  facet normal -0.125333 0.992115 0
    outer loop
      vertex 0.749525 -3.92915 0
      vertex 0.251162 -3.99211 20
      vertex 0.749525 -3.92915 20
    endloop
  endfacet
  facet normal -0.125333 0.992115 0
    outer loop
      vertex 0.251162 -3.99211 20
      vertex 0.749525 -3.92915 0
      vertex 0.251162 -3.99211 0
    endloop
  endfacet
  facet normal -0.951057 -0.309017 0
    outer loop
      vertex 3.87433 0.994759 0
      vertex 3.71911 1.4725 20
      vertex 3.71911 1.4725 0
    endloop
  endfacet
  facet normal -0.951057 -0.309017 0
    outer loop
      vertex 3.71911 1.4725 20
      vertex 3.87433 0.994759 0
      vertex 3.87433 0.994759 20
    endloop
  endfacet
  facet normal -0.982287 -0.187381 0
    outer loop
      vertex 3.96846 0.501332 0
      vertex 3.87433 0.994759 20
      vertex 3.87433 0.994759 0
    endloop
  endfacet
  facet normal -0.982287 -0.187381 0
    outer loop
      vertex 3.87433 0.994759 20
      vertex 3.96846 0.501332 0
      vertex 3.96846 0.501332 20
    endloop
  endfacet
  facet normal -0.770513 -0.637424 0
    outer loop
      vertex 3.23607 2.35114 0
      vertex 2.91587 2.73819 20
      vertex 2.91587 2.73819 0
    endloop
  endfacet
  facet normal -0.770513 -0.637424 0
    outer loop
      vertex 2.91587 2.73819 20
      vertex 3.23607 2.35114 0
      vertex 3.23607 2.35114 20
    endloop
  endfacet
  facet normal -0.125333 -0.992115 0
    outer loop
      vertex 0.251162 3.99211 0
      vertex 0.749525 3.92915 20
      vertex 0.251162 3.99211 20
    endloop
  endfacet
  facet normal -0.125333 -0.992115 -0
    outer loop
      vertex 0.749525 3.92915 20
      vertex 0.251162 3.99211 0
      vertex 0.749525 3.92915 0
    endloop
  endfacet
  facet normal -0.481754 -0.876307 0
    outer loop
      vertex 1.70312 3.61931 0
      vertex 2.14331 3.37731 20
      vertex 1.70312 3.61931 20
    endloop
  endfacet
  facet normal -0.481754 -0.876307 -0
    outer loop
      vertex 2.14331 3.37731 20
      vertex 1.70312 3.61931 0
      vertex 2.14331 3.37731 0
    endloop
  endfacet
  facet normal 0.904827 -0.42578 0
    outer loop
      vertex -3.71911 1.4725 20
      vertex -3.50523 1.92701 0
      vertex -3.50523 1.92701 20
    endloop
  endfacet
  facet normal 0.904827 -0.42578 0
    outer loop
      vertex -3.50523 1.92701 0
      vertex -3.71911 1.4725 20
      vertex -3.71911 1.4725 0
    endloop
  endfacet
  facet normal 0.982287 -0.187381 0
    outer loop
      vertex -3.96846 0.501332 20
      vertex -3.87433 0.994759 0
      vertex -3.87433 0.994759 20
    endloop
  endfacet
  facet normal 0.982287 -0.187381 0
    outer loop
      vertex -3.87433 0.994759 0
      vertex -3.96846 0.501332 20
      vertex -3.96846 0.501332 0
    endloop
  endfacet
  facet normal 0.587785 -0.809017 0
    outer loop
      vertex -2.5497 3.08205 0
      vertex -2.14331 3.37731 20
      vertex -2.5497 3.08205 20
    endloop
  endfacet
  facet normal 0.587785 -0.809017 0
    outer loop
      vertex -2.14331 3.37731 20
      vertex -2.5497 3.08205 0
      vertex -2.14331 3.37731 0
    endloop
  endfacet
  facet normal 0.125333 -0.992115 0
    outer loop
      vertex -0.749525 3.92915 0
      vertex -0.251162 3.99211 20
      vertex -0.749525 3.92915 20
    endloop
  endfacet
  facet normal 0.125333 -0.992115 0
    outer loop
      vertex -0.251162 3.99211 20
      vertex -0.749525 3.92915 0
      vertex -0.251162 3.99211 0
    endloop
  endfacet
  facet normal -0.770513 0.637424 0
    outer loop
      vertex 2.91587 -2.73819 0
      vertex 3.23607 -2.35114 20
      vertex 3.23607 -2.35114 0
    endloop
  endfacet
  facet normal -0.770513 0.637424 0
    outer loop
      vertex 3.23607 -2.35114 20
      vertex 2.91587 -2.73819 0
      vertex 2.91587 -2.73819 20
    endloop
  endfacet
  facet normal -0.951057 0.309017 0
    outer loop
      vertex 3.71911 -1.4725 0
      vertex 3.87433 -0.994759 20
      vertex 3.87433 -0.994759 0
    endloop
  endfacet
  facet normal -0.951057 0.309017 0
    outer loop
      vertex 3.87433 -0.994759 20
      vertex 3.71911 -1.4725 0
      vertex 3.71911 -1.4725 20
    endloop
  endfacet
  facet normal -0.982287 0.187381 0
    outer loop
      vertex 3.87433 -0.994759 0
      vertex 3.96846 -0.501332 20
      vertex 3.96846 -0.501332 0
    endloop
  endfacet
  facet normal -0.982287 0.187381 0
    outer loop
      vertex 3.96846 -0.501332 20
      vertex 3.87433 -0.994759 0
      vertex 3.87433 -0.994759 20
    endloop
  endfacet
  facet normal 0.368126 0.929776 -0
    outer loop
      vertex -1.23607 -3.80423 0
      vertex -1.70312 -3.61931 20
      vertex -1.23607 -3.80423 20
    endloop
  endfacet
  facet normal 0.368126 0.929776 0
    outer loop
      vertex -1.70312 -3.61931 20
      vertex -1.23607 -3.80423 0
      vertex -1.70312 -3.61931 0
    endloop
  endfacet
  facet normal -0.368126 0.929776 0
    outer loop
      vertex 1.70312 -3.61931 0
      vertex 1.23607 -3.80423 20
      vertex 1.70312 -3.61931 20
    endloop
  endfacet
  facet normal -0.368126 0.929776 0
    outer loop
      vertex 1.23607 -3.80423 20
      vertex 1.70312 -3.61931 0
      vertex 1.23607 -3.80423 0
    endloop
  endfacet
  facet normal -0.481754 0.876307 0
    outer loop
      vertex 2.14331 -3.37731 0
      vertex 1.70312 -3.61931 20
      vertex 2.14331 -3.37731 20
    endloop
  endfacet
  facet normal -0.481754 0.876307 0
    outer loop
      vertex 1.70312 -3.61931 20
      vertex 2.14331 -3.37731 0
      vertex 1.70312 -3.61931 0
    endloop
  endfacet
  facet normal -0.844328 0.535826 0
    outer loop
      vertex 3.23607 -2.35114 0
      vertex 3.50523 -1.92701 20
      vertex 3.50523 -1.92701 0
    endloop
  endfacet
  facet normal -0.844328 0.535826 0
    outer loop
      vertex 3.50523 -1.92701 20
      vertex 3.23607 -2.35114 0
      vertex 3.23607 -2.35114 20
    endloop
  endfacet
  facet normal -0.998027 0.0627918 0
    outer loop
      vertex 3.96846 -0.501332 0
      vertex 4 0 20
      vertex 4 0 0
    endloop
  endfacet
  facet normal -0.998027 0.0627918 0
    outer loop
      vertex 4 0 20
      vertex 3.96846 -0.501332 0
      vertex 3.96846 -0.501332 20
    endloop
  endfacet
  facet normal 0.24869 0.968583 -0
    outer loop
      vertex -0.749525 -3.92915 0
      vertex -1.23607 -3.80423 20
      vertex -0.749525 -3.92915 20
    endloop
  endfacet
  facet normal 0.24869 0.968583 0
    outer loop
      vertex -1.23607 -3.80423 20
      vertex -0.749525 -3.92915 0
      vertex -1.23607 -3.80423 0
    endloop
  endfacet
  facet normal 0.770513 0.637424 0
    outer loop
      vertex -2.91587 -2.73819 20
      vertex -3.23607 -2.35114 0
      vertex -3.23607 -2.35114 20
    endloop
  endfacet
  facet normal 0.770513 0.637424 0
    outer loop
      vertex -3.23607 -2.35114 0
      vertex -2.91587 -2.73819 20
      vertex -2.91587 -2.73819 0
    endloop
  endfacet
  facet normal 0.904827 0.42578 0
    outer loop
      vertex -3.50523 -1.92701 20
      vertex -3.71911 -1.4725 0
      vertex -3.71911 -1.4725 20
    endloop
  endfacet
  facet normal 0.904827 0.42578 0
    outer loop
      vertex -3.71911 -1.4725 0
      vertex -3.50523 -1.92701 20
      vertex -3.50523 -1.92701 0
    endloop
  endfacet
  facet normal 0.951057 0.309017 0
    outer loop
      vertex -3.71911 -1.4725 20
      vertex -3.87433 -0.994759 0
      vertex -3.87433 -0.994759 20
    endloop
  endfacet
  facet normal 0.951057 0.309017 0
    outer loop
      vertex -3.87433 -0.994759 0
      vertex -3.71911 -1.4725 20
      vertex -3.71911 -1.4725 0
    endloop
  endfacet
  facet normal -0.24869 0.968583 0
    outer loop
      vertex 1.23607 -3.80423 0
      vertex 0.749525 -3.92915 20
      vertex 1.23607 -3.80423 20
    endloop
  endfacet
  facet normal -0.24869 0.968583 0
    outer loop
      vertex 0.749525 -3.92915 20
      vertex 1.23607 -3.80423 0
      vertex 0.749525 -3.92915 0
    endloop
  endfacet
  facet normal -0.684546 0.72897 0
    outer loop
      vertex 2.91587 -2.73819 0
      vertex 2.5497 -3.08205 20
      vertex 2.91587 -2.73819 20
    endloop
  endfacet
  facet normal -0.684546 0.72897 0
    outer loop
      vertex 2.5497 -3.08205 20
      vertex 2.91587 -2.73819 0
      vertex 2.5497 -3.08205 0
    endloop
  endfacet
  facet normal -0.587785 0.809017 0
    outer loop
      vertex 2.5497 -3.08205 0
      vertex 2.14331 -3.37731 20
      vertex 2.5497 -3.08205 20
    endloop
  endfacet
  facet normal -0.587785 0.809017 0
    outer loop
      vertex 2.14331 -3.37731 20
      vertex 2.5497 -3.08205 0
      vertex 2.14331 -3.37731 0
    endloop
  endfacet
  facet normal -0.904827 0.42578 0
    outer loop
      vertex 3.50523 -1.92701 0
      vertex 3.71911 -1.4725 20
      vertex 3.71911 -1.4725 0
    endloop
  endfacet
  facet normal -0.904827 0.42578 0
    outer loop
      vertex 3.71911 -1.4725 20
      vertex 3.50523 -1.92701 0
      vertex 3.50523 -1.92701 20
    endloop
  endfacet
  facet normal 0.125333 0.992115 -0
    outer loop
      vertex -0.251162 -3.99211 0
      vertex -0.749525 -3.92915 20
      vertex -0.251162 -3.99211 20
    endloop
  endfacet
  facet normal 0.125333 0.992115 0
    outer loop
      vertex -0.749525 -3.92915 20
      vertex -0.251162 -3.99211 0
      vertex -0.749525 -3.92915 0
    endloop
  endfacet
  facet normal 0.481754 0.876307 -0
    outer loop
      vertex -1.70312 -3.61931 0
      vertex -2.14331 -3.37731 20
      vertex -1.70312 -3.61931 20
    endloop
  endfacet
  facet normal 0.481754 0.876307 0
    outer loop
      vertex -2.14331 -3.37731 20
      vertex -1.70312 -3.61931 0
      vertex -2.14331 -3.37731 0
    endloop
  endfacet
  facet normal 0.844328 0.535826 0
    outer loop
      vertex -3.23607 -2.35114 20
      vertex -3.50523 -1.92701 0
      vertex -3.50523 -1.92701 20
    endloop
  endfacet
  facet normal 0.844328 0.535826 0
    outer loop
      vertex -3.50523 -1.92701 0
      vertex -3.23607 -2.35114 20
      vertex -3.23607 -2.35114 0
    endloop
  endfacet
  facet normal 0.982287 0.187381 0
    outer loop
      vertex -3.87433 -0.994759 20
      vertex -3.96846 -0.501332 0
      vertex -3.96846 -0.501332 20
    endloop
  endfacet
  facet normal 0.982287 0.187381 0
    outer loop
      vertex -3.96846 -0.501332 0
      vertex -3.87433 -0.994759 20
      vertex -3.87433 -0.994759 0
    endloop
  endfacet
  facet normal 0.998027 0.0627918 0
    outer loop
      vertex -3.96846 -0.501332 20
      vertex -4 0 0
      vertex -4 0 20
    endloop
  endfacet
  facet normal 0.998027 0.0627918 0
    outer loop
      vertex -4 0 0
      vertex -3.96846 -0.501332 20
      vertex -3.96846 -0.501332 0
    endloop
  endfacet
  facet normal 0.587785 0.809017 -0
    outer loop
      vertex -2.14331 -3.37731 0
      vertex -2.5497 -3.08205 20
      vertex -2.14331 -3.37731 20
    endloop
  endfacet
  facet normal 0.587785 0.809017 0
    outer loop
      vertex -2.5497 -3.08205 20
      vertex -2.14331 -3.37731 0
      vertex -2.5497 -3.08205 0
    endloop
  endfacet
  facet normal 0.684546 0.72897 -0
    outer loop
      vertex -2.5497 -3.08205 0
      vertex -2.91587 -2.73819 20
      vertex -2.5497 -3.08205 20
    endloop
  endfacet
  facet normal 0.684546 0.72897 0
    outer loop
      vertex -2.91587 -2.73819 20
      vertex -2.5497 -3.08205 0
      vertex -2.91587 -2.73819 0
    endloop
  endfacet
endsolid OpenSCAD_Model
